<?xml version="1.0" encoding="UTF-8" standalone="no"?>
<svg
   xmlns:dc="http://purl.org/dc/elements/1.1/"
   xmlns:cc="http://creativecommons.org/ns#"
   xmlns:rdf="http://www.w3.org/1999/02/22-rdf-syntax-ns#"
   xmlns:svg="http://www.w3.org/2000/svg"
   xmlns="http://www.w3.org/2000/svg"
   xmlns:sodipodi="http://sodipodi.sourceforge.net/DTD/sodipodi-0.dtd"
   xmlns:inkscape="http://www.inkscape.org/namespaces/inkscape"
   version="1.0"
   width="1280.000000pt"
   height="1280.000000pt"
   viewBox="0 0 1280.000000 1280.000000"
   preserveAspectRatio="xMidYMid meet"
   id="svg12"
   sodipodi:docname="photo_2017-03-04_01-29-32.jpg.svg"
   inkscape:version="0.92.1 unknown">
  <defs
     id="defs16" />
  <sodipodi:namedview
     pagecolor="#ffffff"
     bordercolor="#666666"
     borderopacity="1"
     objecttolerance="10"
     gridtolerance="10"
     guidetolerance="10"
     inkscape:pageopacity="0"
     inkscape:pageshadow="2"
     inkscape:window-width="1280"
     inkscape:window-height="776"
     id="namedview14"
     showgrid="false"
     inkscape:zoom="0.28123873"
     inkscape:cx="691.74105"
     inkscape:cy="1000.862"
     inkscape:window-x="0"
     inkscape:window-y="24"
     inkscape:window-maximized="1"
     inkscape:current-layer="svg12" />
  <metadata
     id="metadata2">
Created by potrace 1.11, written by Peter Selinger 2001-2013
<rdf:RDF>
  <cc:Work
     rdf:about="">
    <dc:format>image/svg+xml</dc:format>
    <dc:type
       rdf:resource="http://purl.org/dc/dcmitype/StillImage" />
  </cc:Work>
</rdf:RDF>
</metadata>
  <path
     id="path8"
     style="fill:#000000;stroke:none;stroke-width:0.1"
     d="m 415.5,273.6 c -93.90026,1.5775 -183.92397,41.262 -258.7,95.8 l 74.58521,172.72336 C 231.86482,545.26512 234.99218,529.75532 278.4,499 c 58.2008,-41.23645 131.16255,-76.04381 204.8,-62.7 49.14793,5.7256 94.71735,50.11212 81.5,102 -13.95714,53.2831 -74.36925,74.86032 -122.63594,78.2125 -70.41465,4.89038 -101.37665,-1.55143 -134.65156,-8.6375 l 65.59531,198.91094 C 420.61763,786.61923 483.30118,775.543 531.6,803.7 c 50.45261,23.35202 85.95458,82.73266 68.3125,138 -14.13582,66.0753 -69.63569,118.3302 -134.6125,133.9 -51.39244,15.5599 -107.63507,12.7731 -160,2.8 -73.81884,-24.4006 -137.15674,-77.6916 -174.8,-146 C 82.938299,853.74418 55.164115,762.54853 48.8,670.7 21.304954,699.44035 34.531646,794.44551 35.934375,806.6416 48.616683,916.90853 83.018812,1028.5481 153,1115.9 c 72.57739,87.2697 183.23351,143.7739 298.08975,136.6268 104.20664,0.6238 210.56149,-65.5561 238.21025,-169.1268 29.24929,-97.33373 13.62023,-205.7888 -36.9,-293.5 49.89105,2.7474 105.57801,0.3883 130.1,-6.9 76.23772,-22.65897 116.24404,-99.22481 150.6,-164.7 27.18515,-48.27619 72.9036,-97.53208 133.9266,-89.64688 54.2607,4.37573 82.1877,58.05477 93.0734,105.34688 31.3331,107.30641 1.7145,240.11228 -97.1,302.3 C 992.3364,985.95793 879.44893,989.87341 821.2,919 789.97331,889.59962 791.35515,781.98403 784,825.7 c -19.56299,55.4253 -10.40827,117.45917 1.35,173.8375 20.98188,70.3559 71.91779,136.1989 146.65,152.3625 91.4968,22.2372 186.1813,-25.5816 239.6,-98.9 57.3887,-73.2898 76.8997,-170.1711 72.4703,-261.58535 C 1244.2439,693.99958 1221.8622,590.81089 1159.5625,513.6 1106.2189,446.46739 1015.8951,403.69214 930.6,428.9 835.12552,449.32963 773.97268,536.38992 736.4,620.3 717.54111,664.63959 691.31991,710.20401 645.2,730.5 597.19099,742.40356 467.6391,695.50514 510,692.6 553.59305,689.61036 584.04275,637.63439 611.4,600.1 670.5755,518.91071 665.86319,390.44915 586.52266,321.60488 542.4061,276.3788 474.9556,272.6011 415.5,273.6 Z M 558.4,87.8 c -4.45113,31.8015 -1.83301,64.9096 6.56525,95.7522 11.37799,41.7856 32.90418,80.3714 62.42284,112.2153 23.83178,25.70906 48.03165,51.33905 78.54185,69.52733 43.34791,25.84133 94.29158,35.8982 144.29547,33.33678 37.4981,-1.92082 74.49086,-9.16455 110.30768,-20.11264 C 1007.3872,364.19713 1054.2649,346.00974 1092.7,315 c 14.6544,-11.82333 37.3891,-23.05264 41.7248,-41.0059 -33.6224,-41.5562 -67.2447,-83.1124 -100.867,-124.6686 -26.1045,28.3917 -32.3025,34.6047 -50.6743,49.8754 -52.95827,44.0193 -118.68664,74.4048 -188.30289,75.1623 -52.58683,0.5722 -103.20778,-21.354 -142.93166,-53.9303 -38.77917,-31.8016 -69.51433,-63.2616 -79.0831,-98.9728 C 565.38381,94.6564 560.15055,75.2931 558.4,87.8 Z M 677,136 790.9,242 904,129.8 786,20 Z" />
</svg>
